<?xml version="1.0" standalone="no"?>
<!DOCTYPE svg PUBLIC "-//W3C//DTD SVG 20010904//EN"
 "http://www.w3.org/TR/2001/REC-SVG-20010904/DTD/svg10.dtd">
<svg version="1.0" xmlns="http://www.w3.org/2000/svg"
 width="120.000000pt" height="120.000000pt" viewBox="0 0 120.000000 120.000000"
 preserveAspectRatio="xMidYMid meet">
<metadata>
Created by potrace 1.11, written by Peter Selinger 2001-2013
</metadata>
<g transform="translate(0.000000,120.000000) scale(0.100000,-0.100000)"
fill="#000000" stroke="none">
<path d="M87 1169 c-23 -19 -40 -44 -46 -67 -5 -20 -8 -255 -7 -522 1 -540 -2
-517 69 -560 30 -19 53 -20 432 -20 379 0 402 1 432 20 65 39 66 46 68 440 1
195 3 358 3 361 1 3 34 38 72 78 94 95 94 109 2 204 -59 59 -76 71 -118 80
-28 6 -228 12 -459 14 l-411 3 -37 -31z"/>
</g>
</svg>
